<?xml version="1.0" encoding="UTF-8" standalone="no"?>
<!-- Generator: Adobe Illustrator 12.0.0, SVG Export Plug-In . SVG Version: 6.00 Build 51448)  -->

<svg
   xmlns:dc="http://purl.org/dc/elements/1.1/"
   xmlns:cc="http://creativecommons.org/ns#"
   xmlns:rdf="http://www.w3.org/1999/02/22-rdf-syntax-ns#"
   xmlns:svg="http://www.w3.org/2000/svg"
   xmlns="http://www.w3.org/2000/svg"
   xmlns:sodipodi="http://sodipodi.sourceforge.net/DTD/sodipodi-0.dtd"
   xmlns:inkscape="http://www.inkscape.org/namespaces/inkscape"
   version="1.1"
   id="Layer_1"
   width="75"
   height="147"
   viewBox="0 0 75 147"
   overflow="visible"
   enable-background="new 0 0 147 75"
   xml:space="preserve"
   sodipodi:docname="11v.svg"
   style="overflow:visible"
   inkscape:version="0.92.5 (2060ec1f9f, 2020-04-08)"><metadata
   id="metadata2760"><rdf:RDF><cc:Work
       rdf:about=""><dc:format>image/svg+xml</dc:format><dc:type
         rdf:resource="http://purl.org/dc/dcmitype/StillImage" /><dc:title></dc:title></cc:Work></rdf:RDF></metadata><defs
   id="defs2758" /><sodipodi:namedview
   pagecolor="#ffffff"
   bordercolor="#666666"
   borderopacity="1"
   objecttolerance="10"
   gridtolerance="10"
   guidetolerance="10"
   inkscape:pageopacity="0"
   inkscape:pageshadow="2"
   inkscape:window-width="3818"
   inkscape:window-height="1929"
   id="namedview2756"
   showgrid="false"
   fit-margin-top="0"
   fit-margin-left="0"
   fit-margin-right="0"
   fit-margin-bottom="0"
   inkscape:zoom="3.3767956"
   inkscape:cx="-48.798298"
   inkscape:cy="83.168409"
   inkscape:window-x="0"
   inkscape:window-y="27"
   inkscape:window-maximized="1"
   inkscape:current-layer="Layer_1" />
<rect
   x="-145.5"
   y="1.5"
   width="144"
   height="72"
   rx="10"
   id="rect2733"
   transform="rotate(-90)"
   style="fill:#ffffff;stroke:#000000;stroke-width:3" />
<rect
   x="-73.443001"
   y="2.7980003"
   width="0.31299999"
   height="68.025002"
   id="rect2735"
   transform="rotate(-90)"
   style="stroke:#000000;stroke-width:4" />
<g
   id="g2743"
   transform="rotate(-90,73.5,73.5)">
	<g
   id="g2741">
		<path
   d="M 109.875,38.368"
   id="path2737"
   inkscape:connector-curvature="0"
   style="fill:#4c667f" />
		<path
   d="m 110.438,32.424 c -7.643,0 -8.815,11.888 -1.126,11.888 7.642,0 8.814,-11.888 1.126,-11.888 z"
   id="path2739"
   inkscape:connector-curvature="0"
   style="fill:#4c667f" />
	</g>
</g>
<g
   id="g2753"
   transform="rotate(-90,73.5,73.5)">
	<path
   d="M 37.132,38.951"
   id="path2745"
   inkscape:connector-curvature="0"
   style="fill:#4c667f" />
	<g
   id="g2751">
		<path
   d="M 37.132,38.951"
   id="path2747"
   inkscape:connector-curvature="0"
   style="fill:#4c667f" />
		<path
   d="m 37.695,33.008 c -7.644,0 -8.815,11.887 -1.127,11.887 7.643,0 8.816,-11.887 1.127,-11.887 z"
   id="path2749"
   inkscape:connector-curvature="0"
   style="fill:#4c667f" />
	</g>
</g>
<rect
   style="fill:#ffffff;stroke:#000000;stroke-width:3"
   transform="rotate(-90)"
   id="rect7009"
   rx="10"
   height="72"
   width="144"
   y="1.5"
   x="-145.5" /><rect
   style="stroke:#000000;stroke-width:4"
   transform="rotate(-90)"
   id="rect7011"
   height="68.025002"
   width="0.31299999"
   y="2.7980003"
   x="-73.443001" /><g
   transform="rotate(-90,73.5,73.5)"
   id="g7019">
	<g
   id="g7017">
		<path
   style="fill:#4c667f"
   inkscape:connector-curvature="0"
   id="path7013"
   d="M 109.875,38.368" />
		<path
   style="fill:#4c667f"
   inkscape:connector-curvature="0"
   id="path7015"
   d="m 110.438,32.424 c -7.643,0 -8.815,11.888 -1.126,11.888 7.642,0 8.814,-11.888 1.126,-11.888 z" />
	</g>
</g><g
   transform="rotate(-90,73.5,73.5)"
   id="g7029">
	<path
   style="fill:#4c667f"
   inkscape:connector-curvature="0"
   id="path7021"
   d="M 37.132,38.951" />
	<g
   id="g7027">
		<path
   style="fill:#4c667f"
   inkscape:connector-curvature="0"
   id="path7023"
   d="M 37.132,38.951" />
		<path
   style="fill:#4c667f"
   inkscape:connector-curvature="0"
   id="path7025"
   d="m 37.695,33.008 c -7.644,0 -8.815,11.887 -1.127,11.887 7.643,0 8.816,-11.887 1.127,-11.887 z" />
	</g>
</g></svg>