<?xml version="1.0" encoding="UTF-8" standalone="no"?>
<!-- Generator: Adobe Illustrator 12.0.0, SVG Export Plug-In . SVG Version: 6.00 Build 51448)  -->

<svg
   xmlns:dc="http://purl.org/dc/elements/1.1/"
   xmlns:cc="http://creativecommons.org/ns#"
   xmlns:rdf="http://www.w3.org/1999/02/22-rdf-syntax-ns#"
   xmlns:svg="http://www.w3.org/2000/svg"
   xmlns="http://www.w3.org/2000/svg"
   xmlns:sodipodi="http://sodipodi.sourceforge.net/DTD/sodipodi-0.dtd"
   xmlns:inkscape="http://www.inkscape.org/namespaces/inkscape"
   version="1.1"
   id="Layer_1"
   width="75"
   height="147"
   viewBox="0 0 75 147"
   overflow="visible"
   enable-background="new 0 0 147 75"
   xml:space="preserve"
   sodipodi:docname="33v.svg"
   style="overflow:visible"
   inkscape:version="0.92.5 (2060ec1f9f, 2020-04-08)"><metadata
   id="metadata7894"><rdf:RDF><cc:Work
       rdf:about=""><dc:format>image/svg+xml</dc:format><dc:type
         rdf:resource="http://purl.org/dc/dcmitype/StillImage" /><dc:title></dc:title></cc:Work></rdf:RDF></metadata><defs
   id="defs7892" /><sodipodi:namedview
   pagecolor="#ffffff"
   bordercolor="#666666"
   borderopacity="1"
   objecttolerance="10"
   gridtolerance="10"
   guidetolerance="10"
   inkscape:pageopacity="0"
   inkscape:pageshadow="2"
   inkscape:window-width="3818"
   inkscape:window-height="1929"
   id="namedview7890"
   showgrid="false"
   fit-margin-top="0"
   fit-margin-left="0"
   fit-margin-right="0"
   fit-margin-bottom="0"
   inkscape:zoom="2.3877551"
   inkscape:cx="-12.965812"
   inkscape:cy="73.5"
   inkscape:window-x="0"
   inkscape:window-y="27"
   inkscape:window-maximized="1"
   inkscape:current-layer="Layer_1" />
<rect
   x="-145.5"
   y="1.5"
   width="144"
   height="72"
   rx="10"
   id="rect7831"
   transform="rotate(-90)"
   style="fill:#ffffff;stroke:#000000;stroke-width:3" />
<rect
   x="-73.443001"
   y="2.7980003"
   width="0.31299999"
   height="68.025002"
   id="rect7833"
   transform="rotate(-90)"
   style="stroke:#000000;stroke-width:4" />
<g
   id="g7841"
   transform="rotate(-90,73.5,73.5)">
	<g
   id="g7839">
		<path
   d="M 130.182,56.569"
   id="path7835"
   inkscape:connector-curvature="0"
   style="fill:#9c191e" />
		<path
   d="m 130.744,50.626 c -7.642,0 -8.814,11.888 -1.126,11.888 7.642,0 8.816,-11.888 1.126,-11.888 z"
   id="path7837"
   inkscape:connector-curvature="0"
   style="fill:#9c191e" />
	</g>
</g>
<g
   id="g7849"
   transform="rotate(-90,73.5,73.5)">
	<g
   id="g7847">
		<path
   d="M 109.875,38.368"
   id="path7843"
   inkscape:connector-curvature="0"
   style="fill:#9c191e" />
		<path
   d="m 110.438,32.424 c -7.643,0 -8.815,11.888 -1.126,11.888 7.642,0 8.814,-11.888 1.126,-11.888 z"
   id="path7845"
   inkscape:connector-curvature="0"
   style="fill:#9c191e" />
	</g>
</g>
<g
   id="g7857"
   transform="rotate(-90,73.5,73.5)">
	<g
   id="g7855">
		<path
   d="M 90.855,20.164"
   id="path7851"
   inkscape:connector-curvature="0"
   style="fill:#9c191e" />
		<path
   d="m 91.418,14.221 c -7.642,0 -8.814,11.887 -1.126,11.887 7.643,-0.001 8.815,-11.887 1.126,-11.887 z"
   id="path7853"
   inkscape:connector-curvature="0"
   style="fill:#9c191e" />
	</g>
</g>
<g
   id="g7867"
   transform="rotate(-90,73.5,73.5)">
	<path
   d="M 57.438,57.152"
   id="path7859"
   inkscape:connector-curvature="0"
   style="fill:#9c191e" />
	<g
   id="g7865">
		<path
   d="M 57.438,57.152"
   id="path7861"
   inkscape:connector-curvature="0"
   style="fill:#9c191e" />
		<path
   d="m 58.002,51.209 c -7.643,0 -8.814,11.888 -1.127,11.888 7.643,0 8.814,-11.888 1.127,-11.888 z"
   id="path7863"
   inkscape:connector-curvature="0"
   style="fill:#9c191e" />
	</g>
</g>
<g
   id="g7877"
   transform="rotate(-90,73.5,73.5)">
	<path
   d="M 37.132,38.951"
   id="path7869"
   inkscape:connector-curvature="0"
   style="fill:#9c191e" />
	<g
   id="g7875">
		<path
   d="M 37.132,38.951"
   id="path7871"
   inkscape:connector-curvature="0"
   style="fill:#9c191e" />
		<path
   d="m 37.695,33.008 c -7.644,0 -8.815,11.887 -1.127,11.887 7.643,0 8.816,-11.887 1.127,-11.887 z"
   id="path7873"
   inkscape:connector-curvature="0"
   style="fill:#9c191e" />
	</g>
</g>
<g
   id="g7887"
   transform="rotate(-90,73.5,73.5)">
	<path
   d="M 18.111,20.747"
   id="path7879"
   inkscape:connector-curvature="0"
   style="fill:#9c191e" />
	<g
   id="g7885">
		<path
   d="M 18.111,20.747"
   id="path7881"
   inkscape:connector-curvature="0"
   style="fill:#9c191e" />
		<path
   d="m 18.676,14.805 c -7.643,0 -8.814,11.887 -1.127,11.887 7.642,-0.003 8.814,-11.887 1.127,-11.887 z"
   id="path7883"
   inkscape:connector-curvature="0"
   style="fill:#9c191e" />
	</g>
</g>
</svg>