<?xml version="1.0" encoding="UTF-8" standalone="no"?>
<!-- Generator: Adobe Illustrator 12.0.0, SVG Export Plug-In . SVG Version: 6.00 Build 51448)  -->

<svg
   xmlns:dc="http://purl.org/dc/elements/1.1/"
   xmlns:cc="http://creativecommons.org/ns#"
   xmlns:rdf="http://www.w3.org/1999/02/22-rdf-syntax-ns#"
   xmlns:svg="http://www.w3.org/2000/svg"
   xmlns="http://www.w3.org/2000/svg"
   xmlns:sodipodi="http://sodipodi.sourceforge.net/DTD/sodipodi-0.dtd"
   xmlns:inkscape="http://www.inkscape.org/namespaces/inkscape"
   version="1.1"
   id="Layer_1"
   width="147"
   height="75"
   viewBox="0 0 147 75"
   overflow="visible"
   enable-background="new 0 0 147 75"
   xml:space="preserve"
   sodipodi:docname="50.svg"
   inkscape:version="0.92.5 (2060ec1f9f, 2020-04-08)"><metadata
   id="metadata69"><rdf:RDF><cc:Work
       rdf:about=""><dc:format>image/svg+xml</dc:format><dc:type
         rdf:resource="http://purl.org/dc/dcmitype/StillImage" /></cc:Work></rdf:RDF></metadata><defs
   id="defs67" /><sodipodi:namedview
   pagecolor="#ffffff"
   bordercolor="#666666"
   borderopacity="1"
   objecttolerance="10"
   gridtolerance="10"
   guidetolerance="10"
   inkscape:pageopacity="0"
   inkscape:pageshadow="2"
   inkscape:window-width="3840"
   inkscape:window-height="1951"
   id="namedview65"
   showgrid="false"
   inkscape:zoom="2.3877551"
   inkscape:cx="26.803419"
   inkscape:cy="37.5"
   inkscape:window-x="0"
   inkscape:window-y="27"
   inkscape:window-maximized="1"
   inkscape:current-layer="Layer_1" />
<rect
   x="1.5"
   y="1.5"
   fill="#FFFFFF"
   stroke="#000000"
   stroke-width="3"
   width="144"
   height="72"
   id="rect2" />
<rect
   x="73.557"
   y="2.798"
   stroke="#000000"
   stroke-width="4"
   width="0.313"
   height="68.025"
   id="rect4" />

<g
   id="g22">
	<path
   fill="#3A5681"
   d="M57.438,57.152"
   id="path14" />
	<g
   id="g20">
		<path
   fill="#3A5681"
   d="M57.438,57.152"
   id="path16" />
		<path
   fill="#3A5681"
   d="M58.002,51.209c-7.643,0-8.814,11.888-1.127,11.888C64.518,63.097,65.689,51.209,58.002,51.209    L58.002,51.209z"
   id="path18" />
	</g>
</g>
<g
   id="g32">
	<path
   fill="#3A5681"
   d="M18.111,57.152"
   id="path24" />
	<g
   id="g30">
		<path
   fill="#3A5681"
   d="M18.111,57.152"
   id="path26" />
		<path
   fill="#3A5681"
   d="M18.676,51.209c-7.643,0-8.814,11.888-1.127,11.888C25.191,63.097,26.363,51.209,18.676,51.209    L18.676,51.209z"
   id="path28" />
	</g>
</g>
<g
   id="g42">
	<path
   fill="#3A5681"
   d="M37.132,38.951"
   id="path34" />
	<g
   id="g40">
		<path
   fill="#3A5681"
   d="M37.132,38.951"
   id="path36" />
		<path
   fill="#3A5681"
   d="M37.695,33.008c-7.644,0-8.815,11.887-1.127,11.887C44.211,44.895,45.384,33.008,37.695,33.008    L37.695,33.008z"
   id="path38" />
	</g>
</g>
<g
   id="g52">
	<path
   fill="#3A5681"
   d="M57.438,20.747"
   id="path44" />
	<g
   id="g50">
		<path
   fill="#3A5681"
   d="M57.438,20.747"
   id="path46" />
		<path
   fill="#3A5681"
   d="M58.002,14.805c-7.643,0-8.814,11.887-1.127,11.887C64.518,26.689,65.689,14.805,58.002,14.805    L58.002,14.805z"
   id="path48" />
	</g>
</g>
<g
   id="g62">
	<path
   fill="#3A5681"
   d="M18.111,20.747"
   id="path54" />
	<g
   id="g60">
		<path
   fill="#3A5681"
   d="M18.111,20.747"
   id="path56" />
		<path
   fill="#3A5681"
   d="M18.676,14.805c-7.643,0-8.814,11.887-1.127,11.887C25.191,26.689,26.363,14.805,18.676,14.805    L18.676,14.805z"
   id="path58" />
	</g>
</g>
</svg>