<?xml version="1.0" encoding="UTF-8" standalone="no"?>
<!-- Generator: Adobe Illustrator 12.0.0, SVG Export Plug-In . SVG Version: 6.00 Build 51448)  -->

<svg
   xmlns:dc="http://purl.org/dc/elements/1.1/"
   xmlns:cc="http://creativecommons.org/ns#"
   xmlns:rdf="http://www.w3.org/1999/02/22-rdf-syntax-ns#"
   xmlns:svg="http://www.w3.org/2000/svg"
   xmlns="http://www.w3.org/2000/svg"
   xmlns:sodipodi="http://sodipodi.sourceforge.net/DTD/sodipodi-0.dtd"
   xmlns:inkscape="http://www.inkscape.org/namespaces/inkscape"
   version="1.1"
   id="Layer_1"
   width="75"
   height="147"
   viewBox="0 0 75 147"
   overflow="visible"
   enable-background="new 0 0 147 75"
   xml:space="preserve"
   sodipodi:docname="55v.svg"
   style="overflow:visible"
   inkscape:version="0.92.5 (2060ec1f9f, 2020-04-08)"><metadata
   id="metadata9446"><rdf:RDF><cc:Work
       rdf:about=""><dc:format>image/svg+xml</dc:format><dc:type
         rdf:resource="http://purl.org/dc/dcmitype/StillImage" /><dc:title></dc:title></cc:Work></rdf:RDF></metadata><defs
   id="defs9444" /><sodipodi:namedview
   pagecolor="#ffffff"
   bordercolor="#666666"
   borderopacity="1"
   objecttolerance="10"
   gridtolerance="10"
   guidetolerance="10"
   inkscape:pageopacity="0"
   inkscape:pageshadow="2"
   inkscape:window-width="3818"
   inkscape:window-height="1929"
   id="namedview9442"
   showgrid="false"
   fit-margin-top="0"
   fit-margin-left="0"
   fit-margin-right="0"
   fit-margin-bottom="0"
   inkscape:zoom="2.3877551"
   inkscape:cx="-12.965812"
   inkscape:cy="73.5"
   inkscape:window-x="0"
   inkscape:window-y="27"
   inkscape:window-maximized="1"
   inkscape:current-layer="Layer_1" />
<rect
   x="-145.5"
   y="1.5"
   width="144"
   height="72"
   rx="10"
   id="rect9347"
   transform="rotate(-90)"
   style="fill:#ffffff;stroke:#000000;stroke-width:3" />
<rect
   x="-73.443001"
   y="2.7980003"
   width="0.31299999"
   height="68.025002"
   id="rect9349"
   transform="rotate(-90)"
   style="stroke:#000000;stroke-width:4" />
<g
   id="g9357"
   transform="rotate(-90,73.5,73.5)">
	<g
   id="g9355">
		<path
   d="M 130.182,56.569"
   id="path9351"
   inkscape:connector-curvature="0"
   style="fill:#3a5681" />
		<path
   d="m 130.744,50.626 c -7.642,0 -8.814,11.888 -1.126,11.888 7.642,0 8.816,-11.888 1.126,-11.888 z"
   id="path9353"
   inkscape:connector-curvature="0"
   style="fill:#3a5681" />
	</g>
</g>
<g
   id="g9365"
   transform="rotate(-90,73.5,73.5)">
	<g
   id="g9363">
		<path
   d="M 90.855,56.569"
   id="path9359"
   inkscape:connector-curvature="0"
   style="fill:#3a5681" />
		<path
   d="m 91.418,50.626 c -7.642,0 -8.814,11.888 -1.126,11.888 7.643,0 8.815,-11.888 1.126,-11.888 z"
   id="path9361"
   inkscape:connector-curvature="0"
   style="fill:#3a5681" />
	</g>
</g>
<g
   id="g9373"
   transform="rotate(-90,73.5,73.5)">
	<g
   id="g9371">
		<path
   d="M 109.875,38.368"
   id="path9367"
   inkscape:connector-curvature="0"
   style="fill:#3a5681" />
		<path
   d="m 110.438,32.424 c -7.643,0 -8.815,11.888 -1.126,11.888 7.642,0 8.814,-11.888 1.126,-11.888 z"
   id="path9369"
   inkscape:connector-curvature="0"
   style="fill:#3a5681" />
	</g>
</g>
<g
   id="g9381"
   transform="rotate(-90,73.5,73.5)">
	<g
   id="g9379">
		<path
   d="M 130.182,20.164"
   id="path9375"
   inkscape:connector-curvature="0"
   style="fill:#3a5681" />
		<path
   d="m 130.744,14.221 c -7.642,0 -8.814,11.887 -1.126,11.887 7.642,-0.001 8.816,-11.887 1.126,-11.887 z"
   id="path9377"
   inkscape:connector-curvature="0"
   style="fill:#3a5681" />
	</g>
</g>
<g
   id="g9389"
   transform="rotate(-90,73.5,73.5)">
	<g
   id="g9387">
		<path
   d="M 90.855,20.164"
   id="path9383"
   inkscape:connector-curvature="0"
   style="fill:#3a5681" />
		<path
   d="m 91.418,14.221 c -7.642,0 -8.814,11.887 -1.126,11.887 7.643,-0.001 8.815,-11.887 1.126,-11.887 z"
   id="path9385"
   inkscape:connector-curvature="0"
   style="fill:#3a5681" />
	</g>
</g>
<g
   id="g9399"
   transform="rotate(-90,73.5,73.5)">
	<path
   d="M 57.438,57.152"
   id="path9391"
   inkscape:connector-curvature="0"
   style="fill:#3a5681" />
	<g
   id="g9397">
		<path
   d="M 57.438,57.152"
   id="path9393"
   inkscape:connector-curvature="0"
   style="fill:#3a5681" />
		<path
   d="m 58.002,51.209 c -7.643,0 -8.814,11.888 -1.127,11.888 7.643,0 8.814,-11.888 1.127,-11.888 z"
   id="path9395"
   inkscape:connector-curvature="0"
   style="fill:#3a5681" />
	</g>
</g>
<g
   id="g9409"
   transform="rotate(-90,73.5,73.5)">
	<path
   d="M 18.111,57.152"
   id="path9401"
   inkscape:connector-curvature="0"
   style="fill:#3a5681" />
	<g
   id="g9407">
		<path
   d="M 18.111,57.152"
   id="path9403"
   inkscape:connector-curvature="0"
   style="fill:#3a5681" />
		<path
   d="m 18.676,51.209 c -7.643,0 -8.814,11.888 -1.127,11.888 7.642,0 8.814,-11.888 1.127,-11.888 z"
   id="path9405"
   inkscape:connector-curvature="0"
   style="fill:#3a5681" />
	</g>
</g>
<g
   id="g9419"
   transform="rotate(-90,73.5,73.5)">
	<path
   d="M 37.132,38.951"
   id="path9411"
   inkscape:connector-curvature="0"
   style="fill:#3a5681" />
	<g
   id="g9417">
		<path
   d="M 37.132,38.951"
   id="path9413"
   inkscape:connector-curvature="0"
   style="fill:#3a5681" />
		<path
   d="m 37.695,33.008 c -7.644,0 -8.815,11.887 -1.127,11.887 7.643,0 8.816,-11.887 1.127,-11.887 z"
   id="path9415"
   inkscape:connector-curvature="0"
   style="fill:#3a5681" />
	</g>
</g>
<g
   id="g9429"
   transform="rotate(-90,73.5,73.5)">
	<path
   d="M 57.438,20.747"
   id="path9421"
   inkscape:connector-curvature="0"
   style="fill:#3a5681" />
	<g
   id="g9427">
		<path
   d="M 57.438,20.747"
   id="path9423"
   inkscape:connector-curvature="0"
   style="fill:#3a5681" />
		<path
   d="m 58.002,14.805 c -7.643,0 -8.814,11.887 -1.127,11.887 7.643,-0.003 8.814,-11.887 1.127,-11.887 z"
   id="path9425"
   inkscape:connector-curvature="0"
   style="fill:#3a5681" />
	</g>
</g>
<g
   id="g9439"
   transform="rotate(-90,73.5,73.5)">
	<path
   d="M 18.111,20.747"
   id="path9431"
   inkscape:connector-curvature="0"
   style="fill:#3a5681" />
	<g
   id="g9437">
		<path
   d="M 18.111,20.747"
   id="path9433"
   inkscape:connector-curvature="0"
   style="fill:#3a5681" />
		<path
   d="m 18.676,14.805 c -7.643,0 -8.814,11.887 -1.127,11.887 7.642,-0.003 8.814,-11.887 1.127,-11.887 z"
   id="path9435"
   inkscape:connector-curvature="0"
   style="fill:#3a5681" />
	</g>
</g>
</svg>