<?xml version="1.0" encoding="UTF-8" standalone="no"?>
<!-- Generator: Adobe Illustrator 12.0.0, SVG Export Plug-In . SVG Version: 6.00 Build 51448)  -->

<svg
   xmlns:dc="http://purl.org/dc/elements/1.1/"
   xmlns:cc="http://creativecommons.org/ns#"
   xmlns:rdf="http://www.w3.org/1999/02/22-rdf-syntax-ns#"
   xmlns:svg="http://www.w3.org/2000/svg"
   xmlns="http://www.w3.org/2000/svg"
   xmlns:sodipodi="http://sodipodi.sourceforge.net/DTD/sodipodi-0.dtd"
   xmlns:inkscape="http://www.inkscape.org/namespaces/inkscape"
   version="1.1"
   id="Layer_1"
   width="75"
   height="147"
   viewBox="0 0 75 147"
   overflow="visible"
   enable-background="new 0 0 147 75"
   xml:space="preserve"
   sodipodi:docname="66v.svg"
   style="overflow:visible"
   inkscape:version="0.92.5 (2060ec1f9f, 2020-04-08)"><metadata
   id="metadata10276"><rdf:RDF><cc:Work
       rdf:about=""><dc:format>image/svg+xml</dc:format><dc:type
         rdf:resource="http://purl.org/dc/dcmitype/StillImage" /><dc:title></dc:title></cc:Work></rdf:RDF></metadata><defs
   id="defs10274" /><sodipodi:namedview
   pagecolor="#ffffff"
   bordercolor="#666666"
   borderopacity="1"
   objecttolerance="10"
   gridtolerance="10"
   guidetolerance="10"
   inkscape:pageopacity="0"
   inkscape:pageshadow="2"
   inkscape:window-width="3818"
   inkscape:window-height="1929"
   id="namedview10272"
   showgrid="false"
   fit-margin-top="0"
   fit-margin-left="0"
   fit-margin-right="0"
   fit-margin-bottom="0"
   inkscape:zoom="2.3877551"
   inkscape:cx="-12.965812"
   inkscape:cy="73.5"
   inkscape:window-x="0"
   inkscape:window-y="27"
   inkscape:window-maximized="1"
   inkscape:current-layer="Layer_1" />
<rect
   x="-145.5"
   y="1.5"
   width="144"
   height="72"
   rx="10"
   id="rect10159"
   transform="rotate(-90)"
   style="fill:#ffffff;stroke:#000000;stroke-width:3" />
<rect
   x="-73.443001"
   y="2.7980003"
   width="0.31299999"
   height="68.025002"
   id="rect10161"
   transform="rotate(-90)"
   style="stroke:#000000;stroke-width:4" />
<g
   id="g10169"
   transform="rotate(-90,73.5,73.5)">
	<g
   id="g10167">
		<path
   d="M 130.182,56.569"
   id="path10163"
   inkscape:connector-curvature="0"
   style="fill:#e4ba22" />
		<path
   d="m 130.744,50.626 c -7.642,0 -8.814,11.888 -1.126,11.888 7.642,0 8.816,-11.888 1.126,-11.888 z"
   id="path10165"
   inkscape:connector-curvature="0"
   style="fill:#e4ba22" />
	</g>
</g>
<g
   id="g10177"
   transform="rotate(-90,73.5,73.5)">
	<g
   id="g10175">
		<path
   d="M 109.875,56.569"
   id="path10171"
   inkscape:connector-curvature="0"
   style="fill:#e4ba22" />
		<path
   d="m 110.438,50.626 c -7.643,0 -8.815,11.888 -1.126,11.888 7.642,0 8.814,-11.888 1.126,-11.888 z"
   id="path10173"
   inkscape:connector-curvature="0"
   style="fill:#e4ba22" />
	</g>
</g>
<g
   id="g10185"
   transform="rotate(-90,73.5,73.5)">
	<g
   id="g10183">
		<path
   d="M 90.855,56.569"
   id="path10179"
   inkscape:connector-curvature="0"
   style="fill:#e4ba22" />
		<path
   d="m 91.418,50.626 c -7.642,0 -8.814,11.888 -1.126,11.888 7.643,0 8.815,-11.888 1.126,-11.888 z"
   id="path10181"
   inkscape:connector-curvature="0"
   style="fill:#e4ba22" />
	</g>
</g>
<g
   id="g10193"
   transform="rotate(-90,73.5,73.5)">
	<g
   id="g10191">
		<path
   d="M 130.182,20.164"
   id="path10187"
   inkscape:connector-curvature="0"
   style="fill:#e4ba22" />
		<path
   d="m 130.744,14.221 c -7.642,0 -8.814,11.887 -1.126,11.887 7.642,-0.001 8.816,-11.887 1.126,-11.887 z"
   id="path10189"
   inkscape:connector-curvature="0"
   style="fill:#e4ba22" />
	</g>
</g>
<g
   id="g10201"
   transform="rotate(-90,73.5,73.5)">
	<g
   id="g10199">
		<path
   d="M 109.875,20.164"
   id="path10195"
   inkscape:connector-curvature="0"
   style="fill:#e4ba22" />
		<path
   d="m 110.438,14.221 c -7.643,0 -8.815,11.887 -1.126,11.887 7.642,-0.001 8.814,-11.887 1.126,-11.887 z"
   id="path10197"
   inkscape:connector-curvature="0"
   style="fill:#e4ba22" />
	</g>
</g>
<g
   id="g10209"
   transform="rotate(-90,73.5,73.5)">
	<g
   id="g10207">
		<path
   d="M 90.855,20.164"
   id="path10203"
   inkscape:connector-curvature="0"
   style="fill:#e4ba22" />
		<path
   d="m 91.418,14.221 c -7.642,0 -8.814,11.887 -1.126,11.887 7.643,-0.001 8.815,-11.887 1.126,-11.887 z"
   id="path10205"
   inkscape:connector-curvature="0"
   style="fill:#e4ba22" />
	</g>
</g>
<g
   id="g10219"
   transform="rotate(-90,73.5,73.5)">
	<path
   d="M 57.438,57.152"
   id="path10211"
   inkscape:connector-curvature="0"
   style="fill:#e4ba22" />
	<g
   id="g10217">
		<path
   d="M 57.438,57.152"
   id="path10213"
   inkscape:connector-curvature="0"
   style="fill:#e4ba22" />
		<path
   d="m 58.002,51.209 c -7.643,0 -8.814,11.888 -1.127,11.888 7.643,0 8.814,-11.888 1.127,-11.888 z"
   id="path10215"
   inkscape:connector-curvature="0"
   style="fill:#e4ba22" />
	</g>
</g>
<g
   id="g10229"
   transform="rotate(-90,73.5,73.5)">
	<path
   d="M 37.132,57.152"
   id="path10221"
   inkscape:connector-curvature="0"
   style="fill:#e4ba22" />
	<g
   id="g10227">
		<path
   d="M 37.132,57.152"
   id="path10223"
   inkscape:connector-curvature="0"
   style="fill:#e4ba22" />
		<path
   d="m 37.695,51.209 c -7.644,0 -8.815,11.888 -1.127,11.888 7.643,0 8.816,-11.888 1.127,-11.888 z"
   id="path10225"
   inkscape:connector-curvature="0"
   style="fill:#e4ba22" />
	</g>
</g>
<g
   id="g10239"
   transform="rotate(-90,73.5,73.5)">
	<path
   d="M 18.111,57.152"
   id="path10231"
   inkscape:connector-curvature="0"
   style="fill:#e4ba22" />
	<g
   id="g10237">
		<path
   d="M 18.111,57.152"
   id="path10233"
   inkscape:connector-curvature="0"
   style="fill:#e4ba22" />
		<path
   d="m 18.676,51.209 c -7.643,0 -8.814,11.888 -1.127,11.888 7.642,0 8.814,-11.888 1.127,-11.888 z"
   id="path10235"
   inkscape:connector-curvature="0"
   style="fill:#e4ba22" />
	</g>
</g>
<g
   id="g10249"
   transform="rotate(-90,73.5,73.5)">
	<path
   d="M 57.438,20.747"
   id="path10241"
   inkscape:connector-curvature="0"
   style="fill:#e4ba22" />
	<g
   id="g10247">
		<path
   d="M 57.438,20.747"
   id="path10243"
   inkscape:connector-curvature="0"
   style="fill:#e4ba22" />
		<path
   d="m 58.002,14.805 c -7.643,0 -8.814,11.887 -1.127,11.887 7.643,-0.003 8.814,-11.887 1.127,-11.887 z"
   id="path10245"
   inkscape:connector-curvature="0"
   style="fill:#e4ba22" />
	</g>
</g>
<g
   id="g10259"
   transform="rotate(-90,73.5,73.5)">
	<path
   d="M 37.132,20.747"
   id="path10251"
   inkscape:connector-curvature="0"
   style="fill:#e4ba22" />
	<g
   id="g10257">
		<path
   d="M 37.132,20.747"
   id="path10253"
   inkscape:connector-curvature="0"
   style="fill:#e4ba22" />
		<path
   d="m 37.695,14.805 c -7.644,0 -8.815,11.887 -1.127,11.887 7.643,-0.003 8.816,-11.887 1.127,-11.887 z"
   id="path10255"
   inkscape:connector-curvature="0"
   style="fill:#e4ba22" />
	</g>
</g>
<g
   id="g10269"
   transform="rotate(-90,73.5,73.5)">
	<path
   d="M 18.111,20.747"
   id="path10261"
   inkscape:connector-curvature="0"
   style="fill:#e4ba22" />
	<g
   id="g10267">
		<path
   d="M 18.111,20.747"
   id="path10263"
   inkscape:connector-curvature="0"
   style="fill:#e4ba22" />
		<path
   d="m 18.676,14.805 c -7.643,0 -8.814,11.887 -1.127,11.887 7.642,-0.003 8.814,-11.887 1.127,-11.887 z"
   id="path10265"
   inkscape:connector-curvature="0"
   style="fill:#e4ba22" />
	</g>
</g>
</svg>