<?xml version="1.0" encoding="utf-8"?>
<!-- Generator: Adobe Illustrator 12.0.0, SVG Export Plug-In . SVG Version: 6.00 Build 51448)  -->
<!DOCTYPE svg PUBLIC "-//W3C//DTD SVG 1.1//EN" "http://www.w3.org/Graphics/SVG/1.1/DTD/svg11.dtd" [
	<!ENTITY ns_svg "http://www.w3.org/2000/svg">
	<!ENTITY ns_xlink "http://www.w3.org/1999/xlink">
]>
<svg  version="1.1" id="Layer_1" xmlns="&ns_svg;" xmlns:xlink="&ns_xlink;" width="147" height="75" viewBox="0 0 147 75"
	 overflow="visible" enable-background="new 0 0 147 75" xml:space="preserve">
<rect x="1.5" y="1.5" fill="#FFFFFF" stroke="#000000" stroke-width="3" width="144" height="72" rx="10"/>
<rect x="73.557" y="2.798" stroke="#000000" stroke-width="4" width="0.313" height="68.025"/>
<g>
	<path fill="#933A58" d="M57.438,57.152"/>
	<g>
		<path fill="none" d="M57.438,57.152"/>
		<path fill="#933A58" d="M58.002,51.209c-7.643,0-8.814,11.889-1.127,11.889C64.518,63.098,65.689,51.209,58.002,51.209
			L58.002,51.209z"/>
	</g>
</g>
<g>
	<path fill="#933A58" d="M37.132,57.152"/>
	<g>
		<path fill="none" d="M37.132,57.152"/>
		<path fill="#933A58" d="M37.695,51.209c-7.644,0-8.815,11.889-1.127,11.889C44.211,63.098,45.384,51.209,37.695,51.209
			L37.695,51.209z"/>
	</g>
</g>
<g>
	<path fill="#933A58" d="M18.111,57.152"/>
	<g>
		<path fill="none" d="M18.111,57.152"/>
		<path fill="#933A58" d="M18.676,51.209c-7.643,0-8.814,11.889-1.127,11.889C25.191,63.098,26.363,51.209,18.676,51.209
			L18.676,51.209z"/>
	</g>
</g>
<g>
	<path fill="#933A58" d="M37.132,38.951"/>
	<g>
		<path fill="none" d="M37.132,38.951"/>
		<path fill="#933A58" d="M37.695,33.008c-7.644,0-8.815,11.887-1.127,11.887C44.211,44.895,45.384,33.008,37.695,33.008
			L37.695,33.008z"/>
	</g>
</g>
<g>
	<path fill="#933A58" d="M57.438,20.747"/>
	<g>
		<path fill="none" d="M57.438,20.747"/>
		<path fill="#933A58" d="M58.002,14.805c-7.643,0-8.814,11.887-1.127,11.887C64.518,26.689,65.689,14.805,58.002,14.805
			L58.002,14.805z"/>
	</g>
</g>
<g>
	<path fill="#933A58" d="M37.132,20.747"/>
	<g>
		<path fill="none" d="M37.132,20.747"/>
		<path fill="#933A58" d="M37.695,14.805c-7.644,0-8.815,11.887-1.127,11.887C44.211,26.689,45.384,14.805,37.695,14.805
			L37.695,14.805z"/>
	</g>
</g>
<g>
	<path fill="#933A58" d="M18.111,20.747"/>
	<g>
		<path fill="none" d="M18.111,20.747"/>
		<path fill="#933A58" d="M18.676,14.805c-7.643,0-8.814,11.887-1.127,11.887C25.191,26.689,26.363,14.805,18.676,14.805
			L18.676,14.805z"/>
	</g>
</g>
</svg>
