<?xml version="1.0" encoding="UTF-8" standalone="no"?>
<!-- Generator: Adobe Illustrator 12.0.0, SVG Export Plug-In . SVG Version: 6.00 Build 51448)  -->

<svg
   xmlns:dc="http://purl.org/dc/elements/1.1/"
   xmlns:cc="http://creativecommons.org/ns#"
   xmlns:rdf="http://www.w3.org/1999/02/22-rdf-syntax-ns#"
   xmlns:svg="http://www.w3.org/2000/svg"
   xmlns="http://www.w3.org/2000/svg"
   xmlns:sodipodi="http://sodipodi.sourceforge.net/DTD/sodipodi-0.dtd"
   xmlns:inkscape="http://www.inkscape.org/namespaces/inkscape"
   version="1.1"
   id="Layer_1"
   width="75"
   height="147"
   viewBox="0 0 75 147"
   overflow="visible"
   enable-background="new 0 0 147 75"
   xml:space="preserve"
   sodipodi:docname="77v.svg"
   style="overflow:visible"
   inkscape:version="0.92.5 (2060ec1f9f, 2020-04-08)"><metadata
   id="metadata11142"><rdf:RDF><cc:Work
       rdf:about=""><dc:format>image/svg+xml</dc:format><dc:type
         rdf:resource="http://purl.org/dc/dcmitype/StillImage" /><dc:title></dc:title></cc:Work></rdf:RDF></metadata><defs
   id="defs11140" /><sodipodi:namedview
   pagecolor="#ffffff"
   bordercolor="#666666"
   borderopacity="1"
   objecttolerance="10"
   gridtolerance="10"
   guidetolerance="10"
   inkscape:pageopacity="0"
   inkscape:pageshadow="2"
   inkscape:window-width="3818"
   inkscape:window-height="1929"
   id="namedview11138"
   showgrid="false"
   fit-margin-top="0"
   fit-margin-left="0"
   fit-margin-right="0"
   fit-margin-bottom="0"
   inkscape:zoom="2.3877551"
   inkscape:cx="-12.965812"
   inkscape:cy="73.5"
   inkscape:window-x="0"
   inkscape:window-y="27"
   inkscape:window-maximized="1"
   inkscape:current-layer="Layer_1" />
<rect
   x="-145.5"
   y="1.5"
   width="144"
   height="72"
   rx="10"
   id="rect11007"
   transform="rotate(-90)"
   style="fill:#ffffff;stroke:#000000;stroke-width:3" />
<rect
   x="-73.443001"
   y="2.7980003"
   width="0.31299999"
   height="68.025002"
   id="rect11009"
   transform="rotate(-90)"
   style="stroke:#000000;stroke-width:4" />
<g
   id="g11017"
   transform="rotate(-90,73.5,73.5)">
	<g
   id="g11015">
		<path
   d="M 130.182,56.569"
   id="path11011"
   inkscape:connector-curvature="0"
   style="fill:#933a58" />
		<path
   d="m 130.744,50.626 c -7.642,0 -8.814,11.888 -1.126,11.888 7.642,0 8.816,-11.888 1.126,-11.888 z"
   id="path11013"
   inkscape:connector-curvature="0"
   style="fill:#933a58" />
	</g>
</g>
<g
   id="g11025"
   transform="rotate(-90,73.5,73.5)">
	<g
   id="g11023">
		<path
   d="M 109.875,56.569"
   id="path11019"
   inkscape:connector-curvature="0"
   style="fill:#933a58" />
		<path
   d="m 110.438,50.626 c -7.643,0 -8.815,11.888 -1.126,11.888 7.642,0 8.814,-11.888 1.126,-11.888 z"
   id="path11021"
   inkscape:connector-curvature="0"
   style="fill:#933a58" />
	</g>
</g>
<g
   id="g11033"
   transform="rotate(-90,73.5,73.5)">
	<g
   id="g11031">
		<path
   d="M 90.855,56.569"
   id="path11027"
   inkscape:connector-curvature="0"
   style="fill:#933a58" />
		<path
   d="m 91.418,50.626 c -7.642,0 -8.814,11.888 -1.126,11.888 7.643,0 8.815,-11.888 1.126,-11.888 z"
   id="path11029"
   inkscape:connector-curvature="0"
   style="fill:#933a58" />
	</g>
</g>
<g
   id="g11041"
   transform="rotate(-90,73.5,73.5)">
	<g
   id="g11039">
		<path
   d="M 109.875,38.368"
   id="path11035"
   inkscape:connector-curvature="0"
   style="fill:#933a58" />
		<path
   d="m 110.438,32.424 c -7.643,0 -8.815,11.888 -1.126,11.888 7.642,0 8.814,-11.888 1.126,-11.888 z"
   id="path11037"
   inkscape:connector-curvature="0"
   style="fill:#933a58" />
	</g>
</g>
<g
   id="g11049"
   transform="rotate(-90,73.5,73.5)">
	<g
   id="g11047">
		<path
   d="M 130.182,20.164"
   id="path11043"
   inkscape:connector-curvature="0"
   style="fill:#933a58" />
		<path
   d="m 130.744,14.221 c -7.642,0 -8.814,11.887 -1.126,11.887 7.642,-0.001 8.816,-11.887 1.126,-11.887 z"
   id="path11045"
   inkscape:connector-curvature="0"
   style="fill:#933a58" />
	</g>
</g>
<g
   id="g11057"
   transform="rotate(-90,73.5,73.5)">
	<g
   id="g11055">
		<path
   d="M 109.875,20.164"
   id="path11051"
   inkscape:connector-curvature="0"
   style="fill:#933a58" />
		<path
   d="m 110.438,14.221 c -7.643,0 -8.815,11.887 -1.126,11.887 7.642,-0.001 8.814,-11.887 1.126,-11.887 z"
   id="path11053"
   inkscape:connector-curvature="0"
   style="fill:#933a58" />
	</g>
</g>
<g
   id="g11065"
   transform="rotate(-90,73.5,73.5)">
	<g
   id="g11063">
		<path
   d="M 90.855,20.164"
   id="path11059"
   inkscape:connector-curvature="0"
   style="fill:#933a58" />
		<path
   d="m 91.418,14.221 c -7.642,0 -8.814,11.887 -1.126,11.887 7.643,-0.001 8.815,-11.887 1.126,-11.887 z"
   id="path11061"
   inkscape:connector-curvature="0"
   style="fill:#933a58" />
	</g>
</g>
<g
   id="g11075"
   transform="rotate(-90,73.5,73.5)">
	<path
   d="M 57.438,57.152"
   id="path11067"
   inkscape:connector-curvature="0"
   style="fill:#933a58" />
	<g
   id="g11073">
		<path
   d="M 57.438,57.152"
   id="path11069"
   inkscape:connector-curvature="0"
   style="fill:none" />
		<path
   d="m 58.002,51.209 c -7.643,0 -8.814,11.888 -1.127,11.888 7.643,0 8.814,-11.888 1.127,-11.888 z"
   id="path11071"
   inkscape:connector-curvature="0"
   style="fill:#933a58" />
	</g>
</g>
<g
   id="g11085"
   transform="rotate(-90,73.5,73.5)">
	<path
   d="M 37.132,57.152"
   id="path11077"
   inkscape:connector-curvature="0"
   style="fill:#933a58" />
	<g
   id="g11083">
		<path
   d="M 37.132,57.152"
   id="path11079"
   inkscape:connector-curvature="0"
   style="fill:none" />
		<path
   d="m 37.695,51.209 c -7.644,0 -8.815,11.888 -1.127,11.888 7.643,0 8.816,-11.888 1.127,-11.888 z"
   id="path11081"
   inkscape:connector-curvature="0"
   style="fill:#933a58" />
	</g>
</g>
<g
   id="g11095"
   transform="rotate(-90,73.5,73.5)">
	<path
   d="M 18.111,57.152"
   id="path11087"
   inkscape:connector-curvature="0"
   style="fill:#933a58" />
	<g
   id="g11093">
		<path
   d="M 18.111,57.152"
   id="path11089"
   inkscape:connector-curvature="0"
   style="fill:none" />
		<path
   d="m 18.676,51.209 c -7.643,0 -8.814,11.888 -1.127,11.888 7.642,0 8.814,-11.888 1.127,-11.888 z"
   id="path11091"
   inkscape:connector-curvature="0"
   style="fill:#933a58" />
	</g>
</g>
<g
   id="g11105"
   transform="rotate(-90,73.5,73.5)">
	<path
   d="M 37.132,38.951"
   id="path11097"
   inkscape:connector-curvature="0"
   style="fill:#933a58" />
	<g
   id="g11103">
		<path
   d="M 37.132,38.951"
   id="path11099"
   inkscape:connector-curvature="0"
   style="fill:none" />
		<path
   d="m 37.695,33.008 c -7.644,0 -8.815,11.887 -1.127,11.887 7.643,0 8.816,-11.887 1.127,-11.887 z"
   id="path11101"
   inkscape:connector-curvature="0"
   style="fill:#933a58" />
	</g>
</g>
<g
   id="g11115"
   transform="rotate(-90,73.5,73.5)">
	<path
   d="M 57.438,20.747"
   id="path11107"
   inkscape:connector-curvature="0"
   style="fill:#933a58" />
	<g
   id="g11113">
		<path
   d="M 57.438,20.747"
   id="path11109"
   inkscape:connector-curvature="0"
   style="fill:none" />
		<path
   d="m 58.002,14.805 c -7.643,0 -8.814,11.887 -1.127,11.887 7.643,-0.003 8.814,-11.887 1.127,-11.887 z"
   id="path11111"
   inkscape:connector-curvature="0"
   style="fill:#933a58" />
	</g>
</g>
<g
   id="g11125"
   transform="rotate(-90,73.5,73.5)">
	<path
   d="M 37.132,20.747"
   id="path11117"
   inkscape:connector-curvature="0"
   style="fill:#933a58" />
	<g
   id="g11123">
		<path
   d="M 37.132,20.747"
   id="path11119"
   inkscape:connector-curvature="0"
   style="fill:none" />
		<path
   d="m 37.695,14.805 c -7.644,0 -8.815,11.887 -1.127,11.887 7.643,-0.003 8.816,-11.887 1.127,-11.887 z"
   id="path11121"
   inkscape:connector-curvature="0"
   style="fill:#933a58" />
	</g>
</g>
<g
   id="g11135"
   transform="rotate(-90,73.5,73.5)">
	<path
   d="M 18.111,20.747"
   id="path11127"
   inkscape:connector-curvature="0"
   style="fill:#933a58" />
	<g
   id="g11133">
		<path
   d="M 18.111,20.747"
   id="path11129"
   inkscape:connector-curvature="0"
   style="fill:none" />
		<path
   d="m 18.676,14.805 c -7.643,0 -8.814,11.887 -1.127,11.887 7.642,-0.003 8.814,-11.887 1.127,-11.887 z"
   id="path11131"
   inkscape:connector-curvature="0"
   style="fill:#933a58" />
	</g>
</g>
</svg>