<?xml version="1.0" encoding="utf-8"?>
<!-- Generator: Adobe Illustrator 12.0.0, SVG Export Plug-In . SVG Version: 6.00 Build 51448)  -->
<!DOCTYPE svg PUBLIC "-//W3C//DTD SVG 1.1//EN" "http://www.w3.org/Graphics/SVG/1.1/DTD/svg11.dtd" [
	<!ENTITY ns_svg "http://www.w3.org/2000/svg">
	<!ENTITY ns_xlink "http://www.w3.org/1999/xlink">
]>
<svg  version="1.1" id="Layer_1" xmlns="&ns_svg;" xmlns:xlink="&ns_xlink;" width="147" height="75" viewBox="0 0 147 75"
	 overflow="visible" enable-background="new 0 0 147 75" xml:space="preserve">
<rect x="1.5" y="1.5" fill="#FFFFFF" stroke="#000000" stroke-width="3" width="144" height="72" rx="10"/>
<rect x="73.557" y="2.798" stroke="#000000" stroke-width="4" width="0.313" height="68.025"/>
<g>
	<g>
		<path fill="#3E662A" d="M130.182,56.569"/>
		<path fill="#3E662A" d="M130.744,50.626c-7.642,0-8.814,11.888-1.126,11.888C137.26,62.514,138.434,50.626,130.744,50.626
			L130.744,50.626z"/>
	</g>
</g>
<g>
	<g>
		<path fill="#3E662A" d="M90.855,20.164"/>
		<path fill="#3E662A" d="M91.418,14.221c-7.642,0-8.814,11.887-1.126,11.887C97.935,26.107,99.107,14.221,91.418,14.221
			L91.418,14.221z"/>
	</g>
</g>
<g>
	<path fill="#492E4D" d="M57.438,57.152"/>
	<g>
		<path fill="none" d="M57.438,57.152"/>
		<path fill="#492E4D" d="M58.002,51.209c-7.643,0-8.814,11.888-1.127,11.888C64.518,63.097,65.689,51.209,58.002,51.209
			L58.002,51.209z"/>
	</g>
</g>
<g>
	<path fill="#492E4D" d="M37.132,57.152"/>
	<g>
		<path fill="none" d="M37.132,57.152"/>
		<path fill="#492E4D" d="M37.695,51.209c-7.644,0-8.815,11.888-1.127,11.888C44.211,63.097,45.384,51.209,37.695,51.209
			L37.695,51.209z"/>
	</g>
</g>
<g>
	<path fill="#492E4D" d="M18.111,57.152"/>
	<g>
		<path fill="none" d="M18.111,57.152"/>
		<path fill="#492E4D" d="M18.676,51.209c-7.643,0-8.814,11.888-1.127,11.888C25.191,63.097,26.363,51.209,18.676,51.209
			L18.676,51.209z"/>
	</g>
</g>
<g>
	<path fill="#492E4D" d="M57.438,38.951"/>
	<g>
		<path fill="none" d="M57.438,38.951"/>
		<path fill="#492E4D" d="M58.002,33.008c-7.643,0-8.814,11.887-1.127,11.887C64.518,44.895,65.689,33.008,58.002,33.008
			L58.002,33.008z"/>
	</g>
</g>
<g>
	<path fill="#492E4D" d="M18.111,38.951"/>
	<g>
		<path fill="none" d="M18.111,38.951"/>
		<path fill="#492E4D" d="M18.676,33.008c-7.643,0-8.814,11.887-1.127,11.887C25.191,44.895,26.363,33.008,18.676,33.008
			L18.676,33.008z"/>
	</g>
</g>
<g>
	<path fill="#492E4D" d="M57.438,20.747"/>
	<g>
		<path fill="none" d="M57.438,20.747"/>
		<path fill="#492E4D" d="M58.002,14.805c-7.643,0-8.814,11.887-1.127,11.887C64.518,26.689,65.689,14.805,58.002,14.805
			L58.002,14.805z"/>
	</g>
</g>
<g>
	<path fill="#492E4D" d="M37.132,20.747"/>
	<g>
		<path fill="none" d="M37.132,20.747"/>
		<path fill="#492E4D" d="M37.695,14.805c-7.644,0-8.815,11.887-1.127,11.887C44.211,26.689,45.384,14.805,37.695,14.805
			L37.695,14.805z"/>
	</g>
</g>
<g>
	<path fill="#492E4D" d="M18.111,20.747"/>
	<g>
		<path fill="none" d="M18.111,20.747"/>
		<path fill="#492E4D" d="M18.676,14.805c-7.643,0-8.814,11.887-1.127,11.887C25.191,26.689,26.363,14.805,18.676,14.805
			L18.676,14.805z"/>
	</g>
</g>
</svg>
