<?xml version="1.0" encoding="UTF-8" standalone="no"?>
<!-- Generator: Adobe Illustrator 12.0.0, SVG Export Plug-In . SVG Version: 6.00 Build 51448)  -->

<svg
   xmlns:dc="http://purl.org/dc/elements/1.1/"
   xmlns:cc="http://creativecommons.org/ns#"
   xmlns:rdf="http://www.w3.org/1999/02/22-rdf-syntax-ns#"
   xmlns:svg="http://www.w3.org/2000/svg"
   xmlns="http://www.w3.org/2000/svg"
   xmlns:sodipodi="http://sodipodi.sourceforge.net/DTD/sodipodi-0.dtd"
   xmlns:inkscape="http://www.inkscape.org/namespaces/inkscape"
   version="1.1"
   id="Layer_1"
   width="75"
   height="147"
   viewBox="0 0 75 147"
   overflow="visible"
   enable-background="new 0 0 147 75"
   xml:space="preserve"
   sodipodi:docname="88v.svg"
   style="overflow:visible"
   inkscape:version="0.92.5 (2060ec1f9f, 2020-04-08)"><metadata
   id="metadata12135"><rdf:RDF><cc:Work
       rdf:about=""><dc:format>image/svg+xml</dc:format><dc:type
         rdf:resource="http://purl.org/dc/dcmitype/StillImage" /><dc:title></dc:title></cc:Work></rdf:RDF></metadata><defs
   id="defs12133" /><sodipodi:namedview
   pagecolor="#ffffff"
   bordercolor="#666666"
   borderopacity="1"
   objecttolerance="10"
   gridtolerance="10"
   guidetolerance="10"
   inkscape:pageopacity="0"
   inkscape:pageshadow="2"
   inkscape:window-width="3818"
   inkscape:window-height="1929"
   id="namedview12131"
   showgrid="false"
   fit-margin-top="0"
   fit-margin-left="0"
   fit-margin-right="0"
   fit-margin-bottom="0"
   inkscape:zoom="2.3877551"
   inkscape:cx="-12.965812"
   inkscape:cy="73.5"
   inkscape:window-x="0"
   inkscape:window-y="27"
   inkscape:window-maximized="1"
   inkscape:current-layer="Layer_1" />
<rect
   x="-145.5"
   y="1.5"
   width="144"
   height="72"
   rx="10"
   id="rect11982"
   transform="rotate(-90)"
   style="fill:#ffffff;stroke:#000000;stroke-width:3" />
<rect
   x="-73.443001"
   y="2.7980003"
   width="0.31299999"
   height="68.025002"
   id="rect11984"
   transform="rotate(-90)"
   style="stroke:#000000;stroke-width:4" />
<g
   id="g11992"
   transform="rotate(-90,73.5,73.5)">
	<g
   id="g11990">
		<path
   d="M 130.182,56.569"
   id="path11986"
   inkscape:connector-curvature="0"
   style="fill:#492e4d" />
		<path
   d="m 130.744,50.626 c -7.642,0 -8.814,11.888 -1.126,11.888 7.642,0 8.816,-11.888 1.126,-11.888 z"
   id="path11988"
   inkscape:connector-curvature="0"
   style="fill:#492e4d" />
	</g>
</g>
<g
   id="g12000"
   transform="rotate(-90,73.5,73.5)">
	<g
   id="g11998">
		<path
   d="M 109.875,56.569"
   id="path11994"
   inkscape:connector-curvature="0"
   style="fill:#492e4d" />
		<path
   d="m 110.438,50.626 c -7.643,0 -8.815,11.888 -1.126,11.888 7.642,0 8.814,-11.888 1.126,-11.888 z"
   id="path11996"
   inkscape:connector-curvature="0"
   style="fill:#492e4d" />
	</g>
</g>
<g
   id="g12008"
   transform="rotate(-90,73.5,73.5)">
	<g
   id="g12006">
		<path
   d="M 90.855,56.569"
   id="path12002"
   inkscape:connector-curvature="0"
   style="fill:#492e4d" />
		<path
   d="m 91.418,50.626 c -7.642,0 -8.814,11.888 -1.126,11.888 7.643,0 8.815,-11.888 1.126,-11.888 z"
   id="path12004"
   inkscape:connector-curvature="0"
   style="fill:#492e4d" />
	</g>
</g>
<g
   id="g12016"
   transform="rotate(-90,73.5,73.5)">
	<g
   id="g12014">
		<path
   d="M 130.182,38.368"
   id="path12010"
   inkscape:connector-curvature="0"
   style="fill:#492e4d" />
		<path
   d="m 130.744,32.424 c -7.642,0 -8.814,11.888 -1.126,11.888 7.642,0 8.816,-11.888 1.126,-11.888 z"
   id="path12012"
   inkscape:connector-curvature="0"
   style="fill:#492e4d" />
	</g>
</g>
<g
   id="g12024"
   transform="rotate(-90,73.5,73.5)">
	<g
   id="g12022">
		<path
   d="M 90.855,38.368"
   id="path12018"
   inkscape:connector-curvature="0"
   style="fill:#492e4d" />
		<path
   d="m 91.418,32.424 c -7.642,0 -8.814,11.888 -1.126,11.888 7.643,0 8.815,-11.888 1.126,-11.888 z"
   id="path12020"
   inkscape:connector-curvature="0"
   style="fill:#492e4d" />
	</g>
</g>
<g
   id="g12032"
   transform="rotate(-90,73.5,73.5)">
	<g
   id="g12030">
		<path
   d="M 130.182,20.164"
   id="path12026"
   inkscape:connector-curvature="0"
   style="fill:#492e4d" />
		<path
   d="m 130.744,14.221 c -7.642,0 -8.814,11.887 -1.126,11.887 7.642,-0.001 8.816,-11.887 1.126,-11.887 z"
   id="path12028"
   inkscape:connector-curvature="0"
   style="fill:#492e4d" />
	</g>
</g>
<g
   id="g12040"
   transform="rotate(-90,73.5,73.5)">
	<g
   id="g12038">
		<path
   d="M 109.875,20.164"
   id="path12034"
   inkscape:connector-curvature="0"
   style="fill:#492e4d" />
		<path
   d="m 110.438,14.221 c -7.643,0 -8.815,11.887 -1.126,11.887 7.642,-0.001 8.814,-11.887 1.126,-11.887 z"
   id="path12036"
   inkscape:connector-curvature="0"
   style="fill:#492e4d" />
	</g>
</g>
<g
   id="g12048"
   transform="rotate(-90,73.5,73.5)">
	<g
   id="g12046">
		<path
   d="M 90.855,20.164"
   id="path12042"
   inkscape:connector-curvature="0"
   style="fill:#492e4d" />
		<path
   d="m 91.418,14.221 c -7.642,0 -8.814,11.887 -1.126,11.887 7.643,-0.001 8.815,-11.887 1.126,-11.887 z"
   id="path12044"
   inkscape:connector-curvature="0"
   style="fill:#492e4d" />
	</g>
</g>
<g
   id="g12058"
   transform="rotate(-90,73.5,73.5)">
	<path
   d="M 57.438,57.152"
   id="path12050"
   inkscape:connector-curvature="0"
   style="fill:#492e4d" />
	<g
   id="g12056">
		<path
   d="M 57.438,57.152"
   id="path12052"
   inkscape:connector-curvature="0"
   style="fill:none" />
		<path
   d="m 58.002,51.209 c -7.643,0 -8.814,11.888 -1.127,11.888 7.643,0 8.814,-11.888 1.127,-11.888 z"
   id="path12054"
   inkscape:connector-curvature="0"
   style="fill:#492e4d" />
	</g>
</g>
<g
   id="g12068"
   transform="rotate(-90,73.5,73.5)">
	<path
   d="M 37.132,57.152"
   id="path12060"
   inkscape:connector-curvature="0"
   style="fill:#492e4d" />
	<g
   id="g12066">
		<path
   d="M 37.132,57.152"
   id="path12062"
   inkscape:connector-curvature="0"
   style="fill:none" />
		<path
   d="m 37.695,51.209 c -7.644,0 -8.815,11.888 -1.127,11.888 7.643,0 8.816,-11.888 1.127,-11.888 z"
   id="path12064"
   inkscape:connector-curvature="0"
   style="fill:#492e4d" />
	</g>
</g>
<g
   id="g12078"
   transform="rotate(-90,73.5,73.5)">
	<path
   d="M 18.111,57.152"
   id="path12070"
   inkscape:connector-curvature="0"
   style="fill:#492e4d" />
	<g
   id="g12076">
		<path
   d="M 18.111,57.152"
   id="path12072"
   inkscape:connector-curvature="0"
   style="fill:none" />
		<path
   d="m 18.676,51.209 c -7.643,0 -8.814,11.888 -1.127,11.888 7.642,0 8.814,-11.888 1.127,-11.888 z"
   id="path12074"
   inkscape:connector-curvature="0"
   style="fill:#492e4d" />
	</g>
</g>
<g
   id="g12088"
   transform="rotate(-90,73.5,73.5)">
	<path
   d="M 57.438,38.951"
   id="path12080"
   inkscape:connector-curvature="0"
   style="fill:#492e4d" />
	<g
   id="g12086">
		<path
   d="M 57.438,38.951"
   id="path12082"
   inkscape:connector-curvature="0"
   style="fill:none" />
		<path
   d="m 58.002,33.008 c -7.643,0 -8.814,11.887 -1.127,11.887 7.643,0 8.814,-11.887 1.127,-11.887 z"
   id="path12084"
   inkscape:connector-curvature="0"
   style="fill:#492e4d" />
	</g>
</g>
<g
   id="g12098"
   transform="rotate(-90,73.5,73.5)">
	<path
   d="M 18.111,38.951"
   id="path12090"
   inkscape:connector-curvature="0"
   style="fill:#492e4d" />
	<g
   id="g12096">
		<path
   d="M 18.111,38.951"
   id="path12092"
   inkscape:connector-curvature="0"
   style="fill:none" />
		<path
   d="m 18.676,33.008 c -7.643,0 -8.814,11.887 -1.127,11.887 7.642,0 8.814,-11.887 1.127,-11.887 z"
   id="path12094"
   inkscape:connector-curvature="0"
   style="fill:#492e4d" />
	</g>
</g>
<g
   id="g12108"
   transform="rotate(-90,73.5,73.5)">
	<path
   d="M 57.438,20.747"
   id="path12100"
   inkscape:connector-curvature="0"
   style="fill:#492e4d" />
	<g
   id="g12106">
		<path
   d="M 57.438,20.747"
   id="path12102"
   inkscape:connector-curvature="0"
   style="fill:none" />
		<path
   d="m 58.002,14.805 c -7.643,0 -8.814,11.887 -1.127,11.887 7.643,-0.003 8.814,-11.887 1.127,-11.887 z"
   id="path12104"
   inkscape:connector-curvature="0"
   style="fill:#492e4d" />
	</g>
</g>
<g
   id="g12118"
   transform="rotate(-90,73.5,73.5)">
	<path
   d="M 37.132,20.747"
   id="path12110"
   inkscape:connector-curvature="0"
   style="fill:#492e4d" />
	<g
   id="g12116">
		<path
   d="M 37.132,20.747"
   id="path12112"
   inkscape:connector-curvature="0"
   style="fill:none" />
		<path
   d="m 37.695,14.805 c -7.644,0 -8.815,11.887 -1.127,11.887 7.643,-0.003 8.816,-11.887 1.127,-11.887 z"
   id="path12114"
   inkscape:connector-curvature="0"
   style="fill:#492e4d" />
	</g>
</g>
<g
   id="g12128"
   transform="rotate(-90,73.5,73.5)">
	<path
   d="M 18.111,20.747"
   id="path12120"
   inkscape:connector-curvature="0"
   style="fill:#492e4d" />
	<g
   id="g12126">
		<path
   d="M 18.111,20.747"
   id="path12122"
   inkscape:connector-curvature="0"
   style="fill:none" />
		<path
   d="m 18.676,14.805 c -7.643,0 -8.814,11.887 -1.127,11.887 7.642,-0.003 8.814,-11.887 1.127,-11.887 z"
   id="path12124"
   inkscape:connector-curvature="0"
   style="fill:#492e4d" />
	</g>
</g>
</svg>