<?xml version="1.0" encoding="utf-8"?>
<!-- Generator: Adobe Illustrator 12.0.0, SVG Export Plug-In . SVG Version: 6.00 Build 51448)  -->
<!DOCTYPE svg PUBLIC "-//W3C//DTD SVG 1.1//EN" "http://www.w3.org/Graphics/SVG/1.1/DTD/svg11.dtd" [
	<!ENTITY ns_svg "http://www.w3.org/2000/svg">
	<!ENTITY ns_xlink "http://www.w3.org/1999/xlink">
]>
<svg  version="1.1" id="Layer_1" xmlns="&ns_svg;" xmlns:xlink="&ns_xlink;" width="147" height="75" viewBox="0 0 147 75"
	 overflow="visible" enable-background="new 0 0 147 75" xml:space="preserve">
<rect x="1.5" y="1.5" fill="#FFFFFF" stroke="#000000" stroke-width="3" width="144" height="72" rx="10"/>
<rect x="73.13" y="4.177" stroke="#000000" stroke-width="4" width="0.313" height="68.025"/>
<g>
	<g>
		<path fill="none" d="M16.819,18.43"/>
		<path d="M16.256,24.374c7.642,0,8.815-11.888,1.126-11.888C9.74,12.486,8.567,24.374,16.256,24.374L16.256,24.374z"/>
	</g>
</g>
<g>
	<g>
		<path fill="none" d="M37.125,18.43"/>
		<path d="M36.563,24.374c7.642,0,8.815-11.888,1.126-11.888C30.046,12.486,28.874,24.374,36.563,24.374L36.563,24.374z"/>
	</g>
</g>
<g>
	<g>
		<path fill="none" d="M56.145,18.43"/>
		<path d="M55.582,24.374c7.642,0,8.815-11.888,1.126-11.888C49.066,12.486,47.893,24.374,55.582,24.374L55.582,24.374z"/>
	</g>
</g>
<g>
	<g>
		<path fill="none" d="M16.819,36.632"/>
		<path d="M16.256,42.576c7.642,0,8.815-11.888,1.126-11.888C9.74,30.688,8.567,42.576,16.256,42.576L16.256,42.576z"/>
	</g>
</g>
<g>
	<g>
		<path fill="none" d="M37.125,36.632"/>
		<path d="M36.563,42.576c7.642,0,8.815-11.888,1.126-11.888C30.046,30.688,28.874,42.576,36.563,42.576L36.563,42.576z"/>
	</g>
</g>
<g>
	<g>
		<path fill="none" d="M56.145,36.632"/>
		<path d="M55.582,42.576c7.642,0,8.815-11.888,1.126-11.888C49.066,30.688,47.893,42.576,55.582,42.576L55.582,42.576z"/>
	</g>
</g>
<g>
	<g>
		<path fill="none" d="M16.819,54.836"/>
		<path d="M16.256,60.779c7.642,0,8.815-11.887,1.126-11.887C9.74,48.893,8.567,60.779,16.256,60.779L16.256,60.779z"/>
	</g>
</g>
<g>
	<g>
		<path fill="none" d="M37.125,54.836"/>
		<path d="M36.563,60.779c7.642,0,8.815-11.887,1.126-11.887C30.046,48.893,28.874,60.779,36.563,60.779L36.563,60.779z"/>
	</g>
</g>
<g>
	<g>
		<path fill="none" d="M56.145,54.836"/>
		<path d="M55.582,60.779c7.642,0,8.815-11.887,1.126-11.887C49.066,48.893,47.893,60.779,55.582,60.779L55.582,60.779z"/>
	</g>
</g>
<g>
	<path fill="#E4BA22" d="M89.563,17.847"/>
	<g>
		<path fill="none" d="M89.563,17.847"/>
	</g>
</g>
<g>
	<path fill="#E4BA22" d="M128.889,17.847"/>
	<g>
		<path fill="none" d="M128.889,17.847"/>
	</g>
</g>
<g>
	<path fill="#E4BA22" d="M109.868,36.049"/>
	<g>
		<path fill="none" d="M109.868,36.049"/>
	</g>
</g>
<g>
	<path fill="#E4BA22" d="M89.563,54.253"/>
	<g>
		<path fill="none" d="M89.563,54.253"/>
	</g>
</g>
<g>
	<path fill="#E4BA22" d="M128.889,54.253"/>
	<g>
		<path fill="none" d="M128.889,54.253"/>
	</g>
</g>
</svg>
