<?xml version="1.0" encoding="utf-8"?>
<!-- Generator: Adobe Illustrator 12.0.0, SVG Export Plug-In . SVG Version: 6.00 Build 51448)  -->
<!DOCTYPE svg PUBLIC "-//W3C//DTD SVG 1.1//EN" "http://www.w3.org/Graphics/SVG/1.1/DTD/svg11.dtd" [
	<!ENTITY ns_svg "http://www.w3.org/2000/svg">
	<!ENTITY ns_xlink "http://www.w3.org/1999/xlink">
]>
<svg  version="1.1" id="Layer_1" xmlns="&ns_svg;" xmlns:xlink="&ns_xlink;" width="147" height="75" viewBox="0 0 147 75"
	 overflow="visible" enable-background="new 0 0 147 75" xml:space="preserve">
<rect x="1.5" y="1.5" fill="#FFFFFF" stroke="#000000" stroke-width="3" width="144" height="72" rx="10"/>
<rect x="73.13" y="4.177" stroke="#000000" stroke-width="4" width="0.313" height="68.025"/>
<g>
	<g>
		<path fill="none" d="M16.819,18.43"/>
		<path d="M16.256,24.374c7.642,0,8.815-11.888,1.126-11.888C9.74,12.486,8.567,24.374,16.256,24.374L16.256,24.374z"/>
	</g>
</g>
<g>
	<g>
		<path fill="none" d="M37.125,18.43"/>
		<path d="M36.563,24.374c7.642,0,8.815-11.888,1.126-11.888C30.046,12.486,28.874,24.374,36.563,24.374L36.563,24.374z"/>
	</g>
</g>
<g>
	<g>
		<path fill="none" d="M56.145,18.43"/>
		<path d="M55.582,24.374c7.642,0,8.815-11.888,1.126-11.888C49.066,12.486,47.893,24.374,55.582,24.374L55.582,24.374z"/>
	</g>
</g>
<g>
	<g>
		<path fill="none" d="M16.819,36.632"/>
		<path d="M16.256,42.576c7.642,0,8.815-11.888,1.126-11.888C9.74,30.688,8.567,42.576,16.256,42.576L16.256,42.576z"/>
	</g>
</g>
<g>
	<g>
		<path fill="none" d="M37.125,36.632"/>
		<path d="M36.563,42.576c7.642,0,8.815-11.888,1.126-11.888C30.046,30.688,28.874,42.576,36.563,42.576L36.563,42.576z"/>
	</g>
</g>
<g>
	<g>
		<path fill="none" d="M56.145,36.632"/>
		<path d="M55.582,42.576c7.642,0,8.815-11.888,1.126-11.888C49.066,30.688,47.893,42.576,55.582,42.576L55.582,42.576z"/>
	</g>
</g>
<g>
	<g>
		<path fill="none" d="M16.819,54.836"/>
		<path d="M16.256,60.779c7.642,0,8.815-11.887,1.126-11.887C9.74,48.893,8.567,60.779,16.256,60.779L16.256,60.779z"/>
	</g>
</g>
<g>
	<g>
		<path fill="none" d="M37.125,54.836"/>
		<path d="M36.563,60.779c7.642,0,8.815-11.887,1.126-11.887C30.046,48.893,28.874,60.779,36.563,60.779L36.563,60.779z"/>
	</g>
</g>
<g>
	<g>
		<path fill="none" d="M56.145,54.836"/>
		<path d="M55.582,60.779c7.642,0,8.815-11.887,1.126-11.887C49.066,48.893,47.893,60.779,55.582,60.779L55.582,60.779z"/>
	</g>
</g>
<g>
	<g>
		<path fill="none" d="M89.562,17.847"/>
		<path d="M88.998,23.791c7.643,0,8.815-11.888,1.127-11.888C82.482,11.903,81.31,23.791,88.998,23.791L88.998,23.791z"/>
	</g>
</g>
<g>
	<g>
		<path fill="none" d="M109.868,17.847"/>
		<path d="M109.305,23.791c7.643,0,8.815-11.888,1.127-11.888C102.789,11.903,101.616,23.791,109.305,23.791L109.305,23.791z"/>
	</g>
</g>
<g>
	<g>
		<path fill="none" d="M128.888,17.847"/>
		<path d="M128.324,23.791c7.643,0,8.815-11.888,1.127-11.888C121.809,11.903,120.636,23.791,128.324,23.791L128.324,23.791z"/>
	</g>
</g>
<g>
	<g>
		<path fill="none" d="M89.562,36.049"/>
		<path d="M88.998,41.993c7.643,0,8.815-11.888,1.127-11.888C82.482,30.105,81.31,41.993,88.998,41.993L88.998,41.993z"/>
	</g>
</g>
<g>
	<g>
		<path fill="none" d="M109.868,36.049"/>
		<path d="M109.305,41.993c7.643,0,8.815-11.888,1.127-11.888C102.789,30.105,101.616,41.993,109.305,41.993L109.305,41.993z"/>
	</g>
</g>
<g>
	<g>
		<path fill="none" d="M128.888,36.049"/>
		<path d="M128.324,41.993c7.643,0,8.815-11.888,1.127-11.888C121.809,30.105,120.636,41.993,128.324,41.993L128.324,41.993z"/>
	</g>
</g>
<g>
	<g>
		<path fill="none" d="M89.562,54.253"/>
		<path d="M88.998,60.196c7.643,0,8.815-11.887,1.127-11.887C82.482,48.31,81.31,60.196,88.998,60.196L88.998,60.196z"/>
	</g>
</g>
<g>
	<g>
		<path fill="none" d="M109.868,54.253"/>
		<path d="M109.305,60.196c7.643,0,8.815-11.887,1.127-11.887C102.789,48.31,101.616,60.196,109.305,60.196L109.305,60.196z"/>
	</g>
</g>
<g>
	<g>
		<path fill="none" d="M128.888,54.253"/>
		<path d="M128.324,60.196c7.643,0,8.815-11.887,1.127-11.887C121.809,48.31,120.636,60.196,128.324,60.196L128.324,60.196z"/>
	</g>
</g>
</svg>
