<?xml version="1.0" encoding="UTF-8" standalone="no"?>
<!-- Generator: Adobe Illustrator 12.0.0, SVG Export Plug-In . SVG Version: 6.00 Build 51448)  -->

<svg
   xmlns:dc="http://purl.org/dc/elements/1.1/"
   xmlns:cc="http://creativecommons.org/ns#"
   xmlns:rdf="http://www.w3.org/1999/02/22-rdf-syntax-ns#"
   xmlns:svg="http://www.w3.org/2000/svg"
   xmlns="http://www.w3.org/2000/svg"
   xmlns:sodipodi="http://sodipodi.sourceforge.net/DTD/sodipodi-0.dtd"
   xmlns:inkscape="http://www.inkscape.org/namespaces/inkscape"
   version="1.1"
   id="Layer_1"
   width="75"
   height="147"
   viewBox="0 0 75 147"
   overflow="visible"
   enable-background="new 0 0 147 75"
   xml:space="preserve"
   sodipodi:docname="99v.svg"
   style="overflow:visible"
   inkscape:version="0.92.5 (2060ec1f9f, 2020-04-08)"><metadata
   id="metadata13037"><rdf:RDF><cc:Work
       rdf:about=""><dc:format>image/svg+xml</dc:format><dc:type
         rdf:resource="http://purl.org/dc/dcmitype/StillImage" /><dc:title></dc:title></cc:Work></rdf:RDF></metadata><defs
   id="defs13035" /><sodipodi:namedview
   pagecolor="#ffffff"
   bordercolor="#666666"
   borderopacity="1"
   objecttolerance="10"
   gridtolerance="10"
   guidetolerance="10"
   inkscape:pageopacity="0"
   inkscape:pageshadow="2"
   inkscape:window-width="3818"
   inkscape:window-height="1929"
   id="namedview13033"
   showgrid="false"
   fit-margin-top="0"
   fit-margin-left="0"
   fit-margin-right="0"
   fit-margin-bottom="0"
   inkscape:zoom="2.3877551"
   inkscape:cx="-12.965812"
   inkscape:cy="73.5"
   inkscape:window-x="0"
   inkscape:window-y="27"
   inkscape:window-maximized="1"
   inkscape:current-layer="Layer_1" />
<rect
   x="-145.5"
   y="1.5"
   width="144"
   height="72"
   rx="10"
   id="rect12884"
   transform="rotate(-90)"
   style="fill:#ffffff;stroke:#000000;stroke-width:3" />
<rect
   x="-73.870003"
   y="4.177002"
   width="0.31299999"
   height="68.025002"
   id="rect12886"
   transform="rotate(-90)"
   style="stroke:#000000;stroke-width:4" />
<g
   id="g12894"
   transform="rotate(-90,73.5,73.5)">
	<g
   id="g12892">
		<path
   d="M 16.819,18.43"
   id="path12888"
   inkscape:connector-curvature="0"
   style="fill:none" />
		<path
   d="m 16.256,24.374 c 7.642,0 8.815,-11.888 1.126,-11.888 -7.642,0 -8.815,11.888 -1.126,11.888 z"
   id="path12890"
   inkscape:connector-curvature="0" />
	</g>
</g>
<g
   id="g12902"
   transform="rotate(-90,73.5,73.5)">
	<g
   id="g12900">
		<path
   d="M 37.125,18.43"
   id="path12896"
   inkscape:connector-curvature="0"
   style="fill:none" />
		<path
   d="m 36.563,24.374 c 7.642,0 8.815,-11.888 1.126,-11.888 -7.643,0 -8.815,11.888 -1.126,11.888 z"
   id="path12898"
   inkscape:connector-curvature="0" />
	</g>
</g>
<g
   id="g12910"
   transform="rotate(-90,73.5,73.5)">
	<g
   id="g12908">
		<path
   d="M 56.145,18.43"
   id="path12904"
   inkscape:connector-curvature="0"
   style="fill:none" />
		<path
   d="m 55.582,24.374 c 7.642,0 8.815,-11.888 1.126,-11.888 -7.642,0 -8.815,11.888 -1.126,11.888 z"
   id="path12906"
   inkscape:connector-curvature="0" />
	</g>
</g>
<g
   id="g12918"
   transform="rotate(-90,73.5,73.5)">
	<g
   id="g12916">
		<path
   d="M 16.819,36.632"
   id="path12912"
   inkscape:connector-curvature="0"
   style="fill:none" />
		<path
   d="m 16.256,42.576 c 7.642,0 8.815,-11.888 1.126,-11.888 -7.642,0 -8.815,11.888 -1.126,11.888 z"
   id="path12914"
   inkscape:connector-curvature="0" />
	</g>
</g>
<g
   id="g12926"
   transform="rotate(-90,73.5,73.5)">
	<g
   id="g12924">
		<path
   d="M 37.125,36.632"
   id="path12920"
   inkscape:connector-curvature="0"
   style="fill:none" />
		<path
   d="m 36.563,42.576 c 7.642,0 8.815,-11.888 1.126,-11.888 -7.643,0 -8.815,11.888 -1.126,11.888 z"
   id="path12922"
   inkscape:connector-curvature="0" />
	</g>
</g>
<g
   id="g12934"
   transform="rotate(-90,73.5,73.5)">
	<g
   id="g12932">
		<path
   d="M 56.145,36.632"
   id="path12928"
   inkscape:connector-curvature="0"
   style="fill:none" />
		<path
   d="m 55.582,42.576 c 7.642,0 8.815,-11.888 1.126,-11.888 -7.642,0 -8.815,11.888 -1.126,11.888 z"
   id="path12930"
   inkscape:connector-curvature="0" />
	</g>
</g>
<g
   id="g12942"
   transform="rotate(-90,73.5,73.5)">
	<g
   id="g12940">
		<path
   d="M 16.819,54.836"
   id="path12936"
   inkscape:connector-curvature="0"
   style="fill:none" />
		<path
   d="m 16.256,60.779 c 7.642,0 8.815,-11.887 1.126,-11.887 -7.642,10e-4 -8.815,11.887 -1.126,11.887 z"
   id="path12938"
   inkscape:connector-curvature="0" />
	</g>
</g>
<g
   id="g12950"
   transform="rotate(-90,73.5,73.5)">
	<g
   id="g12948">
		<path
   d="M 37.125,54.836"
   id="path12944"
   inkscape:connector-curvature="0"
   style="fill:none" />
		<path
   d="m 36.563,60.779 c 7.642,0 8.815,-11.887 1.126,-11.887 -7.643,10e-4 -8.815,11.887 -1.126,11.887 z"
   id="path12946"
   inkscape:connector-curvature="0" />
	</g>
</g>
<g
   id="g12958"
   transform="rotate(-90,73.5,73.5)">
	<g
   id="g12956">
		<path
   d="M 56.145,54.836"
   id="path12952"
   inkscape:connector-curvature="0"
   style="fill:none" />
		<path
   d="m 55.582,60.779 c 7.642,0 8.815,-11.887 1.126,-11.887 -7.642,10e-4 -8.815,11.887 -1.126,11.887 z"
   id="path12954"
   inkscape:connector-curvature="0" />
	</g>
</g>
<g
   id="g12966"
   transform="rotate(-90,73.5,73.5)">
	<g
   id="g12964">
		<path
   d="M 89.562,17.847"
   id="path12960"
   inkscape:connector-curvature="0"
   style="fill:none" />
		<path
   d="m 88.998,23.791 c 7.643,0 8.815,-11.888 1.127,-11.888 -7.643,0 -8.815,11.888 -1.127,11.888 z"
   id="path12962"
   inkscape:connector-curvature="0" />
	</g>
</g>
<g
   id="g12974"
   transform="rotate(-90,73.5,73.5)">
	<g
   id="g12972">
		<path
   d="M 109.868,17.847"
   id="path12968"
   inkscape:connector-curvature="0"
   style="fill:none" />
		<path
   d="m 109.305,23.791 c 7.643,0 8.815,-11.888 1.127,-11.888 -7.643,0 -8.816,11.888 -1.127,11.888 z"
   id="path12970"
   inkscape:connector-curvature="0" />
	</g>
</g>
<g
   id="g12982"
   transform="rotate(-90,73.5,73.5)">
	<g
   id="g12980">
		<path
   d="M 128.888,17.847"
   id="path12976"
   inkscape:connector-curvature="0"
   style="fill:none" />
		<path
   d="m 128.324,23.791 c 7.643,0 8.815,-11.888 1.127,-11.888 -7.642,0 -8.815,11.888 -1.127,11.888 z"
   id="path12978"
   inkscape:connector-curvature="0" />
	</g>
</g>
<g
   id="g12990"
   transform="rotate(-90,73.5,73.5)">
	<g
   id="g12988">
		<path
   d="M 89.562,36.049"
   id="path12984"
   inkscape:connector-curvature="0"
   style="fill:none" />
		<path
   d="m 88.998,41.993 c 7.643,0 8.815,-11.888 1.127,-11.888 -7.643,0 -8.815,11.888 -1.127,11.888 z"
   id="path12986"
   inkscape:connector-curvature="0" />
	</g>
</g>
<g
   id="g12998"
   transform="rotate(-90,73.5,73.5)">
	<g
   id="g12996">
		<path
   d="M 109.868,36.049"
   id="path12992"
   inkscape:connector-curvature="0"
   style="fill:none" />
		<path
   d="m 109.305,41.993 c 7.643,0 8.815,-11.888 1.127,-11.888 -7.643,0 -8.816,11.888 -1.127,11.888 z"
   id="path12994"
   inkscape:connector-curvature="0" />
	</g>
</g>
<g
   id="g13006"
   transform="rotate(-90,73.5,73.5)">
	<g
   id="g13004">
		<path
   d="M 128.888,36.049"
   id="path13000"
   inkscape:connector-curvature="0"
   style="fill:none" />
		<path
   d="m 128.324,41.993 c 7.643,0 8.815,-11.888 1.127,-11.888 -7.642,0 -8.815,11.888 -1.127,11.888 z"
   id="path13002"
   inkscape:connector-curvature="0" />
	</g>
</g>
<g
   id="g13014"
   transform="rotate(-90,73.5,73.5)">
	<g
   id="g13012">
		<path
   d="M 89.562,54.253"
   id="path13008"
   inkscape:connector-curvature="0"
   style="fill:none" />
		<path
   d="m 88.998,60.196 c 7.643,0 8.815,-11.887 1.127,-11.887 -7.643,0.001 -8.815,11.887 -1.127,11.887 z"
   id="path13010"
   inkscape:connector-curvature="0" />
	</g>
</g>
<g
   id="g13022"
   transform="rotate(-90,73.5,73.5)">
	<g
   id="g13020">
		<path
   d="M 109.868,54.253"
   id="path13016"
   inkscape:connector-curvature="0"
   style="fill:none" />
		<path
   d="m 109.305,60.196 c 7.643,0 8.815,-11.887 1.127,-11.887 -7.643,0.001 -8.816,11.887 -1.127,11.887 z"
   id="path13018"
   inkscape:connector-curvature="0" />
	</g>
</g>
<g
   id="g13030"
   transform="rotate(-90,73.5,73.5)">
	<g
   id="g13028">
		<path
   d="M 128.888,54.253"
   id="path13024"
   inkscape:connector-curvature="0"
   style="fill:none" />
		<path
   d="m 128.324,60.196 c 7.643,0 8.815,-11.887 1.127,-11.887 -7.642,0.001 -8.815,11.887 -1.127,11.887 z"
   id="path13026"
   inkscape:connector-curvature="0" />
	</g>
</g>
</svg>